<svg width="117.4" height="117.4" viewBox="0 0 31.1 31.1" xmlns="http://www.w3.org/2000/svg"><g fill="#666" stroke="#000"><path d="M11.2 2.4 10.6 4v.2l.2 1.5-2.1.5L8 5v-.1L6.6 3.6l-1.3.7.3 1.8.1.2 1 1.2L5.2 9 4 8l-2-.4L1.3 9l1.3 1.4h.1l1.4.6-.5 2.1-1.6-.2-1.8.6V15l1.8.6 1.6-.2.5 2-1.4.6-.1.1-1.3 1.4.8 1.3 1.8-.4H4l1.2-1 1.6 1.5-1 1.2v.2L5.3 24l1.3.7L8 23.5l.1-.2.6-1.4 2 .6-.1 1.5v.2l.6 1.7h1.4l.6-1.7V24l-.2-1.5 2.1-.6.6 1.4v.2l1.4 1.2 1.3-.7-.3-1.8-.1-.2-1-1.2 1.6-1.5 1.2 1h.1l1.8.4.8-1.3-1.3-1.4h-.1l-1.4-.7.5-2 1.6.2h.1l1.8-.6v-1.5l-1.8-.6h-.1l-1.6.2-.5-2 1.4-.7h.1l1.3-1.4-.8-1.3L20 8h-.1l-1.2 1L17 7.5l1-1.2V6l.4-1.8-1.3-.7-1.3 1.2-.1.1-.6 1.4-2-.5.1-1.5V4l-.6-1.7zm.7 9.8a2 2 0 0 1 2 2 2 2 0 0 1-2 2 2 2 0 0 1-2-2 2 2 0 0 1 2-2z" fill="#000" stroke-width=".3"/><path d="m9.4 29.4-.5-2.8 1.4-.9 2.2 1.8 1.4-.8-.5-2.8 1.5-.8 2.1 1.8 1.5-.9-.5-2.8 1.4-.8 2.2 1.8 1.5-.9-.6-2.7 1.5-.9 2.2 1.8 1.4-.9-.5-2.7 1.5-.9 2.1 1.8" fill="none"/></g></svg>