<svg width="438" height="438" xmlns="http://www.w3.org/2000/svg"><path d="m339 9-4 1L25 165c-5 3-10 10-10 16v178c0 6 5 9 10 6l65-32a42 42 0 0 0 32 15 42 42 0 0 0 9-1L0 414v18l438-227v-15l-161 82a42 42 0 0 0 13-30 42 42 0 0 0-1-9l46-23c6-3 10-10 10-16V16c0-5-2-7-6-7zm-27 23c2 0 3 1 3 4v88c0 3-2 7-5 8l-60 30c-3 2-5 0-5-3V71c0-4 2-7 5-9l60-30h2zM212 82c2 0 3 1 3 4v88c0 3-2 7-5 8l-60 30c-3 2-5 0-5-3v-88c0-4 2-7 5-9l60-30h2zm224 23-84 42v22l85-43-1-21zm-324 27c2 0 3 1 3 4v88c0 3-2 7-5 8l-60 30c-3 2-5 0-5-3v-88c0-4 2-7 5-9l60-30h2zm104 137a42 42 0 0 0 32 15 42 42 0 0 0 8-1l-105 54a42 42 0 0 0 13-31 42 42 0 0 0-1-10l53-27z" fill="#000000"/></svg>