<svg viewBox="0 0 256 256" xml:space="preserve" xmlns="http://www.w3.org/2000/svg"><path d="m197.3.5-2 .7L2 205.2l-.5 2.2c-.6 2-.6 2 1.6 3.8s2.1 1.8 4.3 1l2.1-.7 96.8-102.3L203 6.9l.4-1.9c.3-1.7.2-1.8-1.8-3.5-2.1-1.7-2.1-1.7-4.3-1zm54.1 42.7-2 .5c-1.4.5-2 1.2-98.3 103L54.3 248.8l-.4 1.6c-.4 1.6-.2 1.8 1.7 3.6l2 2 4.4-1.5L255 50.6l.6-2.1c.5-2 .5-2.1-1.5-3.6-1-.9-2.4-1.6-2.8-1.7zm-84.9-32.8-1.7.6-6.7 7c-9.7 10.3-9.7 10.2-4 14.9l3.7 3 18.5-19.5-8-6.6zm13.1 26.2-9.3 9.8 39.8 32.9 18.6-19.7-39.8-32.8zM232 79.8l-9.3 9.8 3.7 3.1c5.7 4.7 5.6 4.8 15.4-5.5l6.6-7 .9-3.4-8.1-6.7zM120.3 60c-1.8.2-3.4 1.5-10 8.5-9.3 9.8-9.3 9.7-4 14.3l4 3.3L129 66.4l-3.9-3.3a15.3 15.3 0 0 0-4.8-3.1zm12.1 26.5-9.4 9.9 39.8 32.8 18.6-19.6-39.8-32.9zm52.3 43.2-9.3 9.9 4 3.2c5.4 4.5 5.3 4.5 14.7-5.4 6.5-6.9 7.9-8.7 7.7-10.4 0-.4-1.7-2.2-3.9-4l-3.8-3.1zM73 110c-2 .3-3 1.2-10.2 8.7l-6.8 7-.8 3.5 8 6.6 18.5-19.5L78 113c-2.7-2.2-4-3-4.8-3zm12 26.5-9.3 9.9 39.8 32.8 18.6-19.7-39.8-32.8zm52.4 43.3-9.4 9.8 3.9 3.2c2.2 1.8 4.2 3.2 4.7 3.1 1.8 0 3.6-1.5 10.1-8.4 9.4-10 9.4-10 3.7-14.6l-3.7-3zM25.5 160.1c-2 .2-3.1 1.2-10 8.5-9.3 9.8-9.3 10-3.5 14.7l3.5 3 19-20.2-3.8-3.1c-3.2-2.5-4.1-3-5.2-2.9zm12 26.6-9.5 10 39.8 32.8 19-20-39.8-33zM90 229.9l-9.6 10 3.5 2.9c5.8 4.7 6 4.6 15.3-5.1 9.6-10.2 9.6-10.2 4-14.8l-3.8-3z"/></svg>