<svg viewBox="0 0 114.9 114.9" xml:space="preserve" xmlns="http://www.w3.org/2000/svg" xmlns:xlink="http://www.w3.org/1999/xlink"><g transform="translate(-56.5 -43.7)"><defs><path id="a" d="M0 2.9h300v293.7H0z"/></defs><clipPath id="b"><use width="100%" height="100%" xlink:href="#a"/></clipPath><path d="M130.8 64.4c-3.6.5-2.7 4.9-2.7 4.9l-1.6-.1c-1.8.3-.2 1.7-.2 1.7h1.7l-.1 1.3c-.1 2.2 1.5 3 1.5 3v1.4c-1.6 1-2.2 1.9-2.3 3.7l-.3 8.7c-.1 1.3-.7 1.5-1.4 2.4s-.7 1-.7 2.2-.5 1.7-1.1 2.6c-.5.9.1 2.3-.5 2.8s-1.8 2.6-1.8 2.6h-2.1V85.3c.1-.5 1.2-1.8 3-2.1 2.2-2.4.7-3.4-.9-4-14.6-4.3-44.9-1.3-46.7-1-2.2.2-2.2 1.9-2.2 1.9s-.1 1.6 1.1 19.3c0 1.3.2 2.6.3 3.7a17.3 17.3 0 1 0 17.3 17.8c2.8.6 4.9.6 4.9.6h.2l-.2.8v.3s0 2.1 2.1 2.1h4.7s2.1 0 2.1-2.1v-.3s0-.8-.5-1.5c10.7-1.9 12.2-7.5 13.8-9.6 2-2.6 3.8-2.8 5.2-3.4l2.8-.2a17.3 17.3 0 1 0 29 12.7c0-2.9-1.3-6.5-2-8l18.1-8v-1l-18.8 7.8a15.7 15.7 0 0 0-3.8-4.3l.2-.3 1.5-2 .2-.4c.6-.8 1.2-1.4 1.6-1.6.8-.3 1.2-.9 1.3-2.2.1-1.3.8-1.8 1.2-3.5.4-1.6-1.2-.9-2.2-.2-6.5.5-7.5-.1-10-6.5-.1-1 1.1-1.7 2.2-1.8 0 0 .5-.5.6-1.3l-.2-.2c-1-.6-.5-1.1-1.5-2.5-1.5-.2-4.9-2-6.8-3 .1-2.3-1.5-5.1-1.5-5.1s-.3-.3-.6-1.1c1.1-.8.9-3.2.7-4.9 0 0 1.2-.1 1.7-.5 0-.9-1.3-.7-2.7-.7 0 0-.1-4.6-3.6-4.6zM80.1 84.6h6.8c1.1 0 1.1 1.1 1.1 1.1v7.7c0 1.1-1.1 1.1-1.1 1.1h-6.8c-1.1 0-1.1-1.1-1.1-1.1v-7.7c0-1.1 1.1-1.1 1.1-1.1zm12.5 0h6.8c1.1 0 1.1 1.1 1.1 1.1v12.9c0 1.1-1.1 1.1-1.1 1.1h-6.8c-1.1 0-1.1-1.1-1.1-1.1V85.7c0-1.1 1.1-1.1 1.1-1.1zm12.5 0h6.8c1.1 0 1.1 1.1 1.1 1.1v7.7c0 1.1-1.1 1.1-1.1 1.1h-6.8c-1.1 0-1.1-1.1-1.1-1.1v-7.7c0-1.1 1.1-1.1 1.1-1.1zm37 15.4c0 .1.6.2.6 1.3v1.4s0 1.1-.9.6c0 0-1.3.3-1.5-.7s1.3-2.7 1.8-2.6zM72 105l1.2 12.1-.6.2-4.9-11.1c2.1-1.2 2.1-1.1 4.3-1.2zm-7 2.6 6.7 10.1-.6.5-10-7.1c1.8-2.2 1.8-2.2 3.8-3.5zm63.6 0 8.4 11.8-11.6-8.5c1-1.8 1.5-2 3.2-3.2zm3.8.3h4.3l1 11.2zm15.1 0c1.5 1.1 2.4 1.7 3.4 3.2-5 3.3-9 5.9-11.4 7.8l7-10.6c1 0 .6-.1 1-.4zm-7.5 0 3.8.2-5.3 10.9zm-64.6 1c.9 1.9.9 1.9 1.8 3.2l-2.3 5.2-.5-.1zm47.8 5.2 13.4 6-14.5-1.3c.2-2.6.2-2.5 1.1-4.7zm29.2 0c1 2.2 1 2.2 1.4 4.4l-13.5 1.6c1.1-.8 2.8-1.5 4.8-2.4l4.1-2a94 94 0 0 0 3.2-1.6zm-73.9-.4 1.6 1.8-3.7 2.8-.5-.5zm-19.2.5 11.1 5-.2.7-12.1-1c.1-2.4.1-2.5 1.2-4.7zm22.3 2.7c2.1 1.7 2 1.6 4.2 2.3l-8.6.7-.2-.7zm40.8 5.4 14.2-1.4-13 5.8c-1-2-1-2.1-1.2-4.4zm17.2-1.4 14.1 1.3c-.1 2.5-.1 2.5-1 4.6zm-62.4.1 12.3 1c-.3 2.6-.3 2.8-1.4 5.2l-11-5.5.1-.7zm-7 0 .2.8-11 5.2c-1.1-2.4-1.1-2.4-1.3-5zm66.7.6-8.3 11.6c-2-1.4-2.2-1.5-3.6-3.7zm2.2 0 11.6 8.2c-1.5 2-1.5 2-3.4 3.5zm-.6.3 6 13c-2.2 1-2.2 1-4.7 1.2zm-1 .2.1.1-1 13.8c-2.4 0-2.4 0-4.8-1zm-66.5.6.5.5-7.2 10c-2-1.4-2-1.4-3.5-3.5zm5.4 0 10 7.3c-1.3 1.9-1.3 2-3.2 3.2l-7.3-10 .5-.5zm-1.3 1 5.2 10.9c-2.2 1.1-2.4 1.2-5 1.6l-1-12.3.8-.2zm-2.6 0 .8.2-1 12.3c-2.5-.3-3-.4-5.3-1.4z" clip-path="url(#b)"/></g></svg>