<svg width="225.08" height="225.08" xml:space="preserve" xmlns="http://www.w3.org/2000/svg"><defs><linearGradient id="p" x1="401.24" x2="411.29" y1="96.88" y2="211.77" gradientTransform="translate(1.46 -.01)" gradientUnits="userSpaceOnUse"><stop stop-color="#EF8C18" offset="0"/><stop stop-color="#EFE018" offset=".53"/><stop stop-color="#EF9118" offset="1"/></linearGradient></defs><g transform="translate(-92 -83.7)"><circle cx="204.53" cy="196.23" r="112.04" fill="#faee36"/><path d="M204.53 308.77c-62.05 0-112.54-50.48-112.54-112.54 0-62.05 50.48-112.54 112.54-112.54 62.05 0 112.54 50.48 112.54 112.54s-50.48 112.54-112.54 112.54zm0-224.08c-61.5 0-111.54 50.04-111.54 111.54s50.04 111.54 111.54 111.54 111.54-50.04 111.54-111.54S266.03 84.69 204.53 84.69z" fill="#4f2402"/><linearGradient id="a" x1="271.73" x2="135.27" y1="281.26" y2="108.58" gradientUnits="userSpaceOnUse"><stop stop-color="#FF9C17" offset="0"/><stop stop-color="#EFE018" offset=".38"/><stop stop-color="#EFE122" offset=".41"/><stop stop-color="#F0E33E" offset=".46"/><stop stop-color="#F2E76B" offset=".53"/><stop stop-color="#F4ECA9" offset=".62"/><stop stop-color="#F5EFD4" offset=".67"/><stop stop-color="#F6F1C6" offset=".75"/><stop stop-color="#F8F7A2" offset=".88"/><stop stop-color="#FAFC7F" offset="1"/></linearGradient><circle cx="204.53" cy="196.23" r="110.04" fill="url(#a)"/><circle cx="204.53" cy="196.23" r="100.85" fill="#513011"/><linearGradient id="b" x1="226.36" x2="182.71" y1="293.88" y2="98.58" gradientUnits="userSpaceOnUse"><stop stop-color="#DF8103" offset="0"/><stop stop-color="#E69D1F" offset=".08"/><stop stop-color="#F0C343" offset=".2"/><stop stop-color="#F7DE5D" offset=".31"/><stop stop-color="#FBEE6D" offset=".41"/><stop stop-color="#FDF473" offset=".49"/><stop stop-color="#F8E666" offset=".58"/><stop stop-color="#ECC145" offset=".74"/><stop stop-color="#D78510" offset=".96"/><stop stop-color="#D37805" offset="1"/></linearGradient><circle cx="204.53" cy="196.23" r="100.04" fill="url(#b)"/><circle cx="204.53" cy="196.23" r="97.37" fill="#ffdb51"/><path fill="#b97b16" d="m210.97 107.15-3.91 3.23 1.26 4.92-4.28-2.72-4.28 2.72 1.26-4.92-3.91-3.23 5.07-.32 1.86-4.72 1.87 4.72z"/><linearGradient id="c" x1="204.04" x2="204.04" y1="114.65" y2="101.46" gradientUnits="userSpaceOnUse"><stop stop-color="#F3EB6F" offset=".21"/><stop stop-color="#F2A615" offset=".47"/></linearGradient><path fill="url(#c)" d="m210.97 106.5-3.91 3.23 1.26 4.92-4.28-2.73-4.28 2.73 1.26-4.92-3.91-3.23 5.07-.32 1.86-4.72 1.87 4.72z"/><path fill="#b97b16" d="m210.97 281.15-3.91 3.23 1.26 4.92-4.28-2.72-4.28 2.72 1.26-4.92-3.91-3.23 5.07-.32 1.86-4.72 1.87 4.72z"/><linearGradient id="d" x1="204.04" x2="204.04" y1="288.65" y2="275.46" gradientUnits="userSpaceOnUse"><stop stop-color="#F3EB6F" offset=".21"/><stop stop-color="#F2A615" offset=".47"/></linearGradient><path fill="url(#d)" d="m210.97 280.5-3.91 3.23 1.26 4.92-4.28-2.72-4.28 2.72 1.26-4.92-3.91-3.23 5.07-.32 1.86-4.72 1.87 4.72z"/><path fill="#b97b16" d="m177.64 274.23-3.91 3.23 1.26 4.92-4.28-2.72-4.29 2.72 1.27-4.92-3.91-3.23 5.06-.31 1.87-4.73 1.86 4.73z"/><linearGradient id="e" x1="170.71" x2="170.71" y1="281.73" y2="268.54" gradientUnits="userSpaceOnUse"><stop stop-color="#F3EB6F" offset=".21"/><stop stop-color="#F2A615" offset=".47"/></linearGradient><path fill="url(#e)" d="m177.64 273.58-3.91 3.23 1.26 4.92-4.28-2.72-4.29 2.72 1.27-4.92-3.91-3.23 5.06-.32 1.87-4.72 1.86 4.72z"/><path fill="#b97b16" d="m149.81 255.06-3.91 3.23 1.26 4.91-4.28-2.72-4.29 2.72 1.27-4.91-3.92-3.23 5.07-.32 1.87-4.72 1.86 4.72z"/><linearGradient id="f" x1="142.88" x2="142.88" y1="262.55" y2="249.37" gradientUnits="userSpaceOnUse"><stop stop-color="#F3EB6F" offset=".21"/><stop stop-color="#F2A615" offset=".47"/></linearGradient><path fill="url(#f)" d="m149.81 254.4-3.91 3.24 1.26 4.91-4.28-2.72-4.29 2.72 1.27-4.91-3.92-3.24 5.07-.31 1.87-4.72 1.86 4.72z"/><path fill="#b97b16" d="m244.97 274.88-3.91 3.23 1.26 4.92-4.28-2.72-4.28 2.72 1.26-4.92-3.91-3.23 5.07-.32 1.86-4.72 1.87 4.72z"/><linearGradient id="g" x1="238.04" x2="238.04" y1="282.38" y2="269.19" gradientUnits="userSpaceOnUse"><stop stop-color="#F3EB6F" offset=".21"/><stop stop-color="#F2A615" offset=".47"/></linearGradient><path fill="url(#g)" d="m244.97 274.23-3.91 3.23 1.26 4.92-4.28-2.72-4.28 2.72 1.26-4.92-3.91-3.23 5.07-.32 1.86-4.72 1.87 4.72z"/><path fill="#b97b16" d="m272.64 255.38-3.91 3.23 1.26 4.92-4.28-2.72-4.29 2.72 1.27-4.92-3.91-3.23 5.06-.32 1.87-4.72 1.86 4.72z"/><linearGradient id="h" x1="265.71" x2="265.71" y1="262.88" y2="249.69" gradientUnits="userSpaceOnUse"><stop stop-color="#F3EB6F" offset=".21"/><stop stop-color="#F2A615" offset=".47"/></linearGradient><path fill="url(#h)" d="m272.64 254.73-3.91 3.23 1.26 4.92-4.28-2.72-4.29 2.72 1.27-4.92-3.91-3.23 5.06-.32 1.87-4.72 1.86 4.72z"/><path fill="#b97b16" d="m244.97 114.06-3.91 3.24 1.26 4.91-4.28-2.72-4.28 2.72 1.26-4.91-3.91-3.24 5.07-.31 1.86-4.72 1.87 4.72z"/><linearGradient id="i" x1="238.04" x2="238.04" y1="121.56" y2="108.38" gradientUnits="userSpaceOnUse"><stop stop-color="#F3EB6F" offset=".21"/><stop stop-color="#F2A615" offset=".47"/></linearGradient><path fill="url(#i)" d="m244.97 113.42-3.91 3.23 1.26 4.91-4.28-2.72-4.28 2.72 1.26-4.91-3.91-3.23 5.07-.32 1.86-4.72 1.87 4.72z"/><path fill="#b97b16" d="m272.47 133.32-3.91 3.24 1.27 4.91-4.29-2.72-4.28 2.72 1.26-4.91-3.91-3.24 5.07-.31 1.86-4.72 1.87 4.72z"/><linearGradient id="j" x1="265.54" x2="265.54" y1="140.82" y2="127.64" gradientUnits="userSpaceOnUse"><stop stop-color="#F3EB6F" offset=".21"/><stop stop-color="#F2A615" offset=".47"/></linearGradient><path fill="url(#j)" d="m272.47 132.67-3.91 3.24 1.27 4.91-4.29-2.72-4.28 2.72 1.26-4.91-3.91-3.24 5.07-.31 1.86-4.72 1.87 4.72z"/><path fill="#b97b16" d="m290.31 162.33-3.91 3.23 1.26 4.92-4.28-2.72-4.29 2.72 1.27-4.92-3.92-3.23 5.07-.31 1.87-4.72 1.86 4.72z"/><linearGradient id="k" x1="283.38" x2="283.38" y1="169.83" y2="156.64" gradientUnits="userSpaceOnUse"><stop stop-color="#F3EB6F" offset=".21"/><stop stop-color="#F2A615" offset=".47"/></linearGradient><path fill="url(#k)" d="m290.31 161.68-3.91 3.24 1.26 4.91-4.28-2.72-4.29 2.72 1.27-4.91-3.92-3.24 5.07-.32 1.87-4.72 1.86 4.72z"/><path fill="#b97b16" d="m164.44 114.06 3.92 3.24-1.27 4.91 4.29-2.72 4.28 2.72-1.26-4.91 3.91-3.24-5.07-.31-1.86-4.72-1.87 4.72z"/><linearGradient id="l" x1="350.04" x2="350.04" y1="121.56" y2="108.38" gradientTransform="matrix(-1 0 0 1 521.42 0)" gradientUnits="userSpaceOnUse"><stop stop-color="#F3EB6F" offset=".21"/><stop stop-color="#F2A615" offset=".47"/></linearGradient><path fill="url(#l)" d="m164.44 113.42 3.92 3.23-1.27 4.91 4.29-2.72 4.28 2.72-1.26-4.91 3.91-3.23-5.07-.32-1.86-4.72-1.87 4.72z"/><path fill="#b97b16" d="m136.94 133.32 3.91 3.24-1.26 4.91 4.28-2.72 4.29 2.72-1.27-4.91 3.92-3.24-5.07-.31-1.87-4.72-1.86 4.72z"/><linearGradient id="m" x1="377.54" x2="377.54" y1="140.82" y2="127.64" gradientTransform="matrix(-1 0 0 1 521.42 0)" gradientUnits="userSpaceOnUse"><stop stop-color="#F3EB6F" offset=".21"/><stop stop-color="#F2A615" offset=".47"/></linearGradient><path fill="url(#m)" d="m136.94 132.67 3.91 3.24-1.26 4.91 4.28-2.72 4.29 2.72-1.27-4.91 3.92-3.24-5.07-.31-1.87-4.72-1.86 4.72z"/><path fill="#b97b16" d="m119.11 162.33 3.91 3.23-1.26 4.92 4.28-2.72 4.28 2.72-1.26-4.92 3.91-3.23-5.06-.31-1.87-4.72-1.86 4.72z"/><linearGradient id="n" x1="395.38" x2="395.38" y1="169.83" y2="156.64" gradientTransform="matrix(-1 0 0 1 521.42 0)" gradientUnits="userSpaceOnUse"><stop stop-color="#F3EB6F" offset=".21"/><stop stop-color="#F2A615" offset=".47"/></linearGradient><path fill="url(#n)" d="m119.11 161.68 3.91 3.24-1.26 4.91 4.28-2.72 4.28 2.72-1.26-4.91 3.91-3.24-5.06-.32-1.87-4.72-1.86 4.72z"/><linearGradient id="o" x1="227.92" x2="209.69" y1="289.45" y2="217.42" gradientUnits="userSpaceOnUse"><stop stop-color="#5C0000" stop-opacity=".36" offset="0"/><stop stop-color="#640A04" stop-opacity=".32" offset=".1"/><stop stop-color="#79260D" stop-opacity=".26" offset=".27"/><stop stop-color="#9B531D" stop-opacity=".19" offset=".49"/><stop stop-color="#CB9033" stop-opacity=".09" offset=".74"/><stop stop-color="#FFD54B" stop-opacity="0" offset="1"/></linearGradient><path d="M301.9 196.23c0 53.78-43.6 97.37-97.37 97.37a97.37 97.37 0 0 1-86.41-52.44" fill="url(#o)"/><g font-family="'Old English Text MT'" font-size="38.15" letter-spacing="0" stroke-width=".95" word-spacing="0"><text x="376.62" y="214.34" fill="#be6e0d" style="line-height:1.25" xml:space="preserve" transform="matrix(.974 0 0 .926 -204.44 54.44)"><tspan x="376.62" y="214.34" font-family="'Liberation Serif'" font-size="183.12">₣</tspan></text><text x="378.8" y="214.32" fill="#92540a" style="line-height:1.25" xml:space="preserve" transform="matrix(.974 0 0 .926 -204.44 54.44)"><tspan x="378.8" y="214.32" font-family="'Liberation Serif'" font-size="183.12">₣</tspan></text><text x="378.08" y="214.33" fill="url(#p)" style="line-height:1.25" xml:space="preserve" transform="matrix(.974 0 0 .926 -204.44 54.44)"><tspan x="378.08" y="214.33" font-family="'Liberation Serif'" font-size="183.12">₣</tspan></text></g></g></svg>