<svg width="257.6" height="261" xmlns="http://www.w3.org/2000/svg" xmlns:xlink="http://www.w3.org/1999/xlink"><linearGradient id="a"><stop stop-color="#fff" offset="0"/><stop stop-color="#fff" stop-opacity=".4" offset=".9"/><stop stop-color="#fff" stop-opacity=".3" offset="1"/></linearGradient><radialGradient id="c" cx="75.6" cy="-73.8" r="26.6" gradientTransform="translate(-10.4)" gradientUnits="userSpaceOnUse" xlink:href="#a"/><radialGradient id="d" cx="115.7" cy="-34" r="19.8" gradientTransform="translate(-10.4)" gradientUnits="userSpaceOnUse" xlink:href="#a"/><radialGradient id="e" cx="191" cy="76.6" r="72.7" gradientTransform="translate(-10.5 -2.2)" gradientUnits="userSpaceOnUse"><stop stop-color="#fff" stop-opacity=".7" offset="0"/><stop stop-color="#fcfeff" stop-opacity=".7" offset=".3"/><stop stop-color="#f3f9ff" stop-opacity=".7" offset=".5"/><stop stop-color="#e4f2ff" stop-opacity=".7" offset=".7"/><stop stop-color="#cfe7ff" stop-opacity=".7" offset=".8"/><stop stop-color="#b3daff" stop-opacity=".7" offset="1"/><stop stop-color="#abd6ff" stop-opacity=".7" offset="1"/></radialGradient><linearGradient id="f" x1="86.8" x2="296.3" y1="64.4" y2="79" gradientTransform="translate(-10.4)" gradientUnits="userSpaceOnUse"><stop stop-color="#8b8e90" offset="0"/><stop stop-color="#e0e0df" offset=".3"/><stop stop-color="#757777" offset="1"/></linearGradient><linearGradient id="b"><stop stop-color="#a7aaab" offset="0"/><stop stop-color="#fff" offset=".2"/><stop stop-color="#efeeed" offset=".4"/><stop stop-color="#8b8e90" offset=".5"/><stop stop-color="#5a5d5e" offset=".8"/><stop stop-color="#e0e0df" offset=".9"/><stop stop-color="#a7aaab" offset="1"/></linearGradient><linearGradient id="g" x1="118.7" x2="130.6" y1="136.7" y2="147.8" gradientUnits="userSpaceOnUse" xlink:href="#b"/><linearGradient id="h" x1="109.9" x2="125.5" y1="142.3" y2="156.8" gradientUnits="userSpaceOnUse" xlink:href="#b"/><linearGradient id="i" x1="71" x2="57.3" y1="207.5" y2="194.3" gradientUnits="userSpaceOnUse"><stop offset="0"/><stop stop-color="#5a5d5e" offset=".2"/><stop offset=".5"/><stop stop-color="#e0e0df" offset=".8"/><stop offset="1"/></linearGradient><linearGradient id="j" x1="105.6" x2="126.1" y1="143" y2="162.1" gradientUnits="userSpaceOnUse"><stop stop-color="#5a5d5e" offset="0"/><stop offset="1"/></linearGradient><linearGradient id="k" x1="128.5" x2="144.3" y1="122.8" y2="137.6" gradientUnits="userSpaceOnUse" xlink:href="#b"/><linearGradient id="l" x1="131" x2="165.7" y1="45.4" y2="60.2" gradientUnits="userSpaceOnUse"><stop stop-color="#fff" stop-opacity=".7" offset="0"/><stop stop-color="#fff" stop-opacity=".2" offset=".9"/><stop stop-color="#fff" stop-opacity=".1" offset="1"/></linearGradient><radialGradient id="m" cx="203.9" cy="69.3" r="51.8" gradientTransform="matrix(-1 -1 1 -1 286.9 275.4)" gradientUnits="userSpaceOnUse"><stop stop-color="#fff" offset="0"/><stop stop-color="#fff" stop-opacity=".4" offset=".9"/><stop stop-color="#fff" stop-opacity=".3" offset="1"/></radialGradient><circle cx="51.6" cy="-22.8" r="77.5" fill="none"/><path d="m92.7-59 7.1-6.6a60.5 60.5 0 0 0-47.3-23 59.6 59.6 0 0 0-21.8 4.1 72.6 72.6 0 0 1 6.6-.3c22.1 0 41.9 10 55.4 25.8z" fill="url(#c)"/><path d="M96.8-53.9a77.2 77.2 0 0 1 14.5 45.2v1.3a64.8 64.8 0 0 0 2.5-18.1 64 64 0 0 0-10.4-35.2z" fill="url(#d)"/><path d="M123.3 26.5a78.2 78.2 0 0 1 105.4-8.9c16.8 13 26 31.3 27.4 50.1a70.2 70.2 0 0 0-26.5-43 78 78 0 0 0-105.5 8.9 66.6 66.6 0 0 0-16.7 49 66.5 66.5 0 0 1 15.9-56.1z" clip-rule="evenodd" fill="gray" fill-rule="evenodd"/><path d="M122.6 29.7a77.5 77.5 0 0 1 105.6-9A69.2 69.2 0 0 1 239 121.3a77.5 77.5 0 0 1-105.6 9 69.2 69.2 0 0 1-10.7-100.6z" clip-rule="evenodd" fill="url(#e)" fill-rule="evenodd" opacity=".5"/><path d="m107.2 87.7 9.9 19.7 13.1 15.5 12.4 9.8 13 5 9.9 2.8 12.3 1.8 11.5-.6 17.4-3.4 15.2-7.1 14.6-11 9.8-11.9-4.7 10.1-10.5 10.3-16 10.7-14.2 5-16.1 1.8-20.3-1-18.5-6.5-15.4-8.7-12.2-14-7.9-13.3-3.7-12.2z" clip-rule="evenodd" fill="#4d4d4d" fill-rule="evenodd"/><path d="M254.7 86.8a67 67 0 0 1-16.6 37.9 78.2 78.2 0 0 1-105.5 8.8A68.8 68.8 0 0 1 106 67.4a69 69 0 0 0 27.3 61.2 78.2 78.2 0 0 0 105.5-9 67.2 67.2 0 0 0 15.9-32.8z" clip-rule="evenodd" fill="#666" fill-rule="evenodd"/><path d="M122 25.8A76.9 76.9 0 0 1 173.5.3a80.2 80.2 0 0 1 56 16.3 71.1 71.1 0 0 1 27.7 48.6 68 68 0 0 1-16.9 52.4 76.9 76.9 0 0 1-51.5 25.5c-19.4 1.7-39.6-3.7-56-16.3S107.1 96.4 105.2 78A68 68 0 0 1 122 25.8zm51.8-22.9a74 74 0 0 0-49.6 24.6A65.5 65.5 0 0 0 108 77.9a68.5 68.5 0 0 0 26.6 46.8 77.2 77.2 0 0 0 54 15.8c18.7-1.6 36.7-10 49.5-24.6s18.1-32.8 16.3-50.4a68.5 68.5 0 0 0-26.7-46.8 77.2 77.2 0 0 0-53.9-15.8z" fill="url(#f)"/><g clip-rule="evenodd" fill-rule="evenodd"><path d="M143.2 134 132 123.4l-26 27.1 11.3 10.8z" fill="url(#g)" transform="translate(-10.4)"/><path d="m119.3 125.7-4.4 4.7c.9.4 2 1 3.3 2.3 3.4 3 5 7.6 5.7 10.7l6-6.2z" fill="#4d4d4d"/><path d="M121.3 158c-3.9-4.4-8-8.6-12.2-11.7-1-.7-.8-2 0-2.8l2.2-2.4a2 2 0 0 1 2.7 0c4.4 4 8.6 8 12.3 11.7.8.7.8 2 0 2.8l-2.2 2.3a2 2 0 0 1-2.8.1z" fill="url(#h)" transform="translate(-10.4)"/><path d="M122.8 160.8a88.4 88.4 0 0 1-16.9-15.8 1.5 1.5 0 0 0-2 0l-93.1 97.4c-.6.6-.4 1.4 0 2a52.8 52.8 0 0 0 16.9 16.2c.7.4 1.5.5 2.1 0l93-97.4c.6-.6.6-1.9 0-2.5z" fill="url(#i)" transform="translate(-10.4)"/><path d="m1 241.8-.6.7c-.6.5-.5 1.4 0 2a52.8 52.8 0 0 0 16.9 16.2c.7.3 1.5.5 2 0l.7-.7c-.6.6-1.4.4-2.1 0A52.8 52.8 0 0 1 1 244c-.5-.7-.6-1.6 0-2.2z"/><path d="M104.1 144.7c4.6 5.1 11.9 12 19 18.1l1.7-5.4c-5-5.1-10-9.6-15.2-14.6z" fill="url(#j)" transform="translate(-10.4)"/><path d="M138.3 140.3c-4.4-4.4-8.5-8.3-12.3-11.8a2 2 0 0 1 0-2.8l5.2-5.5c.7-.8 2-.8 2.8-.1 4.6 3.5 8.7 7.4 12.3 11.8.7.8.9 2 .1 2.8l-5.3 5.5a2 2 0 0 1-2.8 0z" fill="url(#k)" transform="translate(-10.4)"/><path d="m115.8 128.3-.5-.4 7.6-8 .5.4zm19.9 3.6.4.4-7.6 8-.5-.4zm-18.5-2.3-.5-.5 7.8-8.1.5.4zm17.2.9.5.4-7.8 8.2-.5-.5zm-15.5.7-.5-.4 8-8.3.4.5zm13.9-2.5.5.4-8 8.3-.4-.5zm-11.7 4.6-.5-.5 8-8.3.5.4zm2 2-.4-.4 8-8.4.5.4z" fill="#666"/><path d="M137.6 107c-14-14.8-16.8-40-5.4-62.6 12.7-25.2 38.8-38.2 60.6-31.3a72.6 72.6 0 0 0-49.2 39.7 75 75 0 0 0-6 54.1z" fill="url(#l)" transform="translate(-10.4)"/></g><path d="M228.2 28.1a64.6 64.6 0 0 1-5 91.2 65.8 65.8 0 0 1-46.1 17.4c17.8 2 36.6-3.4 51.1-16.7a63.6 63.6 0 0 0 5-89.8 61.5 61.5 0 0 0-23.7-16 62.5 62.5 0 0 1 18.7 14z" fill="url(#m)"/></svg>