<svg xmlns="http://www.w3.org/2000/svg" width="50px" height="35px" viewBox="0 0 50 35"><g fill="none"><path d="m3.6 27.9 41.3-.2M7.6 21.9l36.8-.2M5.1 25l39.8-.2" stroke="#a9a9a9" stroke-width=".3"/><path d="m17 18.5 26-.2m-23.1-3.2 17.6-.1m-16.1-3 13.8-.1" stroke="#a9a9a9" stroke-width=".2"/><path d="m22.7 9.1 6.5-.2" stroke="#a9a9a9" stroke-width=".1"/><path d="M3.6 27.9c7.6-12.2 9-8.7 12.8-9.3 4-.5 6.8-11.5 9.5-12.6 3.9-1.4 2.8 5.9 6.6 5 3.8-1 5 6.1 7.3 5 2.3-1 5 6.6 5 6.6" stroke="#99a07c" stroke-width="1.5" stroke-linecap="round"/></g></svg>